<svg xmlns:rdf="http://www.w3.org/1999/02/22-rdf-syntax-ns#" xmlns="http://www.w3.org/2000/svg" height="82mm" width="182mm" version="1.1" xmlns:cc="http://creativecommons.org/ns#" xmlns:dc="http://purl.org/dc/elements/1.1/" viewBox="0 0 644.88181 290.55128">
 <style>.path {
			stroke-dasharray: 10;
			animation: dash 17s linear infinite;
		}
		.path:hover {
			animation: dash 5s linear infinite;
		}
		@keyframes dash {
		  to {
			stroke-dashoffset: 600;
		  }
		}</style>
 <path d="m104.23 31.17-105.32-17.14-1.7652 282.53h648.12v-265.39l-88.13-27.304z" fill-rule="evenodd" stroke="#fff" stroke-width="1px" fill="#eee"/>
 <g fill="#222">
  <path d="m481.94 45.3c-35.499 0-36.061 0.005-36.212 0.28609-0.10099 0.18873-0.15301 3.5338-0.15301 9.8298l-0.005 25.648c-0.007 11.13 0.01 11.941 0.24771 12.115 0.37347 0.27312 72.047 0.27491 72.42 0 0.23669-0.17302 0.25256-1.6897 0.24887-23.764-0.005-21.679-0.0237-23.601-0.24751-23.848-0.23406-0.25873-1.6277-0.26901-36.302-0.26901zm0.0955 5.5991c15.318 0.006 30.641 0.0713 30.783 0.18947 0.16207 0.13451 0.19712 3.3941 0.19712 18.405 0 17.884-0.005 18.245-0.28609 18.395-0.19453 0.1041-10.034 0.15321-30.752 0.15321-27.348 0-30.489-0.0237-30.696-0.22969-0.20561-0.2056-0.22595-2.1399-0.19528-18.406 0.0247-13.256 0.0794-18.221 0.20108-18.343 0.11795-0.11802 15.43-0.17098 30.747-0.16476zm-21.495 1.3764v7.606h20.621v-7.606zm3.2697 1.8706c0.18948 0 0.38439 0.0148 0.58467 0.0438 0.20027 0.028 0.40746 0.0701 0.6216 0.12707v0.73023c-0.18948-0.0847-0.37436-0.14867-0.55462-0.19179-0.18025-0.0432-0.35049-0.0647-0.51071-0.0647-0.21257 0-0.36973 0.0295-0.4714 0.0878-0.10167 0.0586-0.15253 0.14947-0.15253 0.27269 0 0.0924 0.0337 0.16487 0.10167 0.21725 0.0694 0.0506 0.19416 0.0947 0.37437 0.13172l0.379 0.0763c0.38359 0.077 0.65629 0.19412 0.81804 0.35123 0.16176 0.15717 0.24266 0.38053 0.24266 0.67015 0 0.38053-0.11326 0.66398-0.33974 0.8504-0.22489 0.18489-0.56922 0.27733-1.0329 0.27733-0.21878 0-0.4383-0.0211-0.65861-0.0624-0.2203-0.0416-0.44062-0.10325-0.66093-0.18489v-0.751c0.22031 0.11706 0.43293 0.20566 0.63784 0.26574 0.2064 0.0585 0.40516 0.0878 0.59615 0.0878 0.19412 0 0.3428-0.0321 0.44606-0.0971 0.10319-0.0647 0.15479-0.15712 0.15479-0.27729 0-0.10783-0.0353-0.19105-0.10631-0.24956-0.0693-0.0585-0.20871-0.11094-0.41827-0.15717l-0.34432-0.0763c-0.34506-0.0739-0.59774-0.19179-0.75796-0.35354-0.1587-0.16176-0.23802-0.37974-0.23802-0.65397 0-0.34359 0.11095-0.60775 0.33278-0.79264 0.22185-0.18489 0.54076-0.27734 0.95671-0.27734zm7.0182 0c0.55462 0 0.98907 0.1587 1.3033 0.47609 0.31428 0.31735 0.47145 0.75565 0.47145 1.3148 0 0.55773-0.15717 0.99523-0.47145 1.3126-0.31423 0.31735-0.74868 0.47604-1.3033 0.47604-0.55309 0-0.98754-0.15869-1.3034-0.47604-0.31427-0.31739-0.47139-0.75489-0.47139-1.3126 0-0.5592 0.15712-0.9975 0.47139-1.3148 0.31582-0.31739 0.75027-0.47609 1.3034-0.47609zm-5.2134 0.0624h3.1798v0.67247h-1.1439v2.7777h-0.88972v-2.7777h-1.1462zm7.6582 0h1.3588c0.45448 0 0.78721 0.0763 0.9983 0.2288 0.21261 0.15252 0.31892 0.3936 0.31892 0.72327 0 0.22805-0.0555 0.41521-0.16639 0.56158-0.10942 0.14636-0.27502 0.2542-0.49686 0.3235 0.12171 0.028 0.23033 0.0909 0.32583 0.18953 0.0971 0.097 0.19491 0.24492 0.29352 0.44367l0.48294 0.9798h-0.94744l-0.42058-0.85731c-0.0848-0.17256-0.17103-0.2904-0.25884-0.3536-0.0863-0.0632-0.20181-0.0947-0.34664-0.0947h-0.25189v1.3056h-0.88966zm3.6419 0h2.401v0.67247h-1.5113v0.64242h1.4212v0.67248h-1.4212v0.79031h1.5622v0.67247h-2.4519zm-6.0868 0.58234c-0.27117 0-0.48147 0.10014-0.63088 0.30042-0.14942 0.20028-0.22416 0.4822-0.22416 0.84577 0 0.36208 0.0747 0.64321 0.22416 0.84349 0.14941 0.20029 0.35971 0.30043 0.63088 0.30043 0.2727 0 0.48373-0.10014 0.63315-0.30043 0.14942-0.20028 0.22416-0.48141 0.22416-0.84349 0-0.36357-0.0747-0.64549-0.22416-0.84577-0.14942-0.20028-0.36045-0.30042-0.63315-0.30042zm3.3346 0.0625v0.88508h0.37437c0.18642 0 0.31966-0.0348 0.39977-0.10399 0.0817-0.0694 0.12249-0.18336 0.12249-0.34201 0-0.15717-0.0406-0.26964-0.12249-0.33742-0.0801-0.0678-0.21335-0.10166-0.39977-0.10166zm8.517 0.90494v2.4151h23.29v-2.4151zm0.47145 0.4714h22.347v1.4725h-22.347zm-24.912 5.0049v10.309h47.917v-10.309zm0.47145 0.47144h46.974v9.3658h-46.974zm-0.55577 11.17v8.0268h13.013v-8.0268zm17.494 0v8.0268h13.013v-8.0268zm17.494 0v8.0268h13.013v-8.0268zm-34.516 0.47145h12.07v7.084h-12.07zm17.494 0h12.07v7.084h-12.07zm17.494 0h12.07v7.084h-12.07zm-0.51467 8.3171v0.76049h13.099v-0.76049zm-17.578 0.16893v0.76075h13.099v-0.76075zm-17.473 0.19016v0.76054h13.099v-0.76054zm35.051 1.1199v0.76049h13.099v-0.76049zm-17.578 0.16892v0.76076h13.099v-0.76076zm-17.473 0.19017v0.76053h13.099v-0.76053zm35.051 1.1622v0.76054h13.099v-0.76054zm-17.578 0.16892v0.76054h13.099v-0.76054zm-17.473 0.19022v0.76048h13.099v-0.76048z"/>
  <path d="m316.23 59.92c-0.97426 0-1.9429 0.0543-2.8879 0.15853-1.5453 0.17045-4.1894 0.73609-5.1764 1.1074-1.8997 0.71458-2.4304 0.93763-3.5821 1.5046-0.70931 0.34923-1.4747 0.76091-1.7008 0.91512-0.22616 0.15422-0.71063 0.47393-1.0767 0.71037-2.0031 1.2938-4.1078 3.2255-5.786 5.3104-1.5833 1.9671-2.5854 3.6643-3.7244 6.3089-0.66646 1.5472-1.5818 5.8142-1.5818 5.8142l-0.1968 1.386s-0.13081 1.239-0.13851 2.0212c0.019 0.32466 0.1073 1.5222 0.19643 2.661 0.46075 5.8868 3.0868 11.454 7.4085 15.706 1.4376 1.4145 4.1713 3.5944 4.5076 3.5944 0.0579 0 0.21035 0.0935 0.33879 0.20798 0.36119 0.32197 2.6234 1.4463 3.8568 1.9166 0.61006 0.23264 1.3422 0.51198 1.6269 0.62092 0.28471 0.109 0.91696 0.27544 1.405 0.36974 0.48805 0.0943 1.0042 0.23311 1.1471 0.30853 0.14293 0.0754 1.0747 0.22605 2.0705 0.33484 4.267 0.46607 8.3 0.0733 12.016-1.1702 1.1094-0.37131 4.1965-1.8047 4.9545-2.3005 0.20333-0.13302 0.6692-0.43487 1.0353-0.67083 2.541-1.6384 5.3671-4.429 7.0167-6.929 0.92666-1.4043 1.9352-3.1759 2.0837-3.6597 0.0579-0.18848 0.16402-0.41627 0.23575-0.50634 0.23601-0.29642 1.0394-2.7142 1.3953-4.1991 0.55558-2.3178 0.7197-3.6877 0.71801-5.9898 0-1.4593-0.0766-2.6686-0.19711-3.1548l-0.77298-4.0921-0.56295-1.4242c-1.8475-4.6739-4.3358-8.1175-7.9938-11.062-2.6519-2.1349-5.047-3.4511-8.2082-4.5104-2.531-0.84808-5.5034-1.2936-8.4262-1.2874zm-5.4761 7.6359h5.8419c4.9183 0 5.9044 0.0348 6.2375 0.22183 0.21761 0.12201 1.0832 0.5621 1.9235 0.97795 2.4329 1.204 4.4984 2.933 6.7487 5.6494 0.51135 0.61723 0.62867 0.8649 0.59156 1.2492l-0.0464 0.47952-1.9226 0.0823c-2.0882 0.0893-3.1308 0.32867-4.5848 1.0526-2.1986 1.0946-3.2203 1.7904-6.6994 4.5633-0.87053 0.69376-1.982 1.5572-2.4701 1.9187-0.48805 0.36151-1.7193 1.3287-2.736 2.1492-3.9251 3.1671-5.5699 4.2369-7.036 4.5769-0.53285 0.1236-1.0812 0.22036-1.2185 0.21493-0.41706-0.0163-1.4501-0.37727-1.8178-0.63478-0.19058-0.13351-0.49068-0.24266-0.66693-0.24266-0.44152 0-0.85483-0.41257-1.075-1.0729-0.2405-0.72122-0.0999-1.1255 0.47719-1.3713 0.25652-0.10926 0.98596-0.63294 1.6208-1.1638 0.63484-0.53084 1.7663-1.4306 2.5142-1.9993 0.74794-0.56879 1.7656-1.3534 2.2614-1.7436 0.49591-0.39018 1.4276-1.1237 2.0705-1.6301 0.64296-0.50639 1.658-1.3046 2.2554-1.7738 0.59751-0.46919 1.1453-0.96366 1.2176-1.0988 0.18115-0.33841-1.0958-1.9034-1.5458-1.8944-0.17303 0.005-0.84693 0.43567-1.4977 0.96061-0.65076 0.52495-1.5825 1.2555-2.0705 1.6234-1.1424 0.86115-6.4582 5.0666-7.8024 6.1726-1.1392 0.93737-1.5136 1.0282-2.1131 0.51256l-0.39286-0.33783 0.009-2.3499 0.009-2.3497 0.63437-0.669c1.198-1.2636 2.5578-2.5502 3.1943-3.0224 0.65213-0.48379 1.401-1.0666 3.1202-2.428 0.53628-0.42475 1.4907-1.1568 2.1209-1.6269 1.4497-1.0814 1.5351-1.3377 0.7219-2.1662-0.41136-0.41922-0.61054-0.75263-0.61054-1.0218 0-0.35471 0.15379-0.47883 1.3681-1.1037zm16.871 12.515c0.45495 0 0.88919 0.0981 1.3946 0.28819 0.95413 0.35882 2.3664 1.6432 2.3664 2.1521 0 0.23517-0.35434 0.5874-1.2941 1.2865-0.71179 0.52942-1.4605 1.1004-1.6638 1.2687-1.1699 0.96783-3.6982 2.9665-4.1411 3.2736-0.28466 0.19738-1.4826 1.1327-2.6621 2.0784-1.1795 0.94569-2.2943 1.798-2.4773 1.894-0.49769 0.26095-0.4189 0.80503 0.22184 1.5316 0.67958 0.77071 0.77888 0.84571 1.1235 0.84856 0.15026 0 0.95018-0.55473 1.7778-1.2354 0.82763-0.68063 1.7792-1.4294 2.1147-1.6638 0.33547-0.23443 1.3991-1.0633 2.3634-1.842 0.9643-0.77873 2.2418-1.786 2.8389-2.2384 0.59705-0.45227 1.2121-1.0305 1.3669-1.2851 0.15479-0.25452 0.53163-0.5757 0.83722-0.71358 0.30558-0.13793 0.6995-0.37621 0.87559-0.52969 0.40741-0.35497 0.72312-0.25541 1.5197 0.47999l0.62461 0.57681-0.049 1.9555c-0.0432 1.7295-0.0814 1.9742-0.3282 2.1191-0.15342 0.09-0.4862 0.38917-0.73945 0.66461-1.3359 1.4529-2.8716 2.8761-4.0866 3.7873-2.7737 2.0801-5.6568 4.4012-5.7248 4.6088-0.0306 0.0942 0.25087 0.51677 0.62582 0.93895 0.92329 1.0396 0.86964 1.2692-0.44441 1.9053-0.56938 0.27561-1.368 0.59109-1.7748 0.70088-0.85193 0.23001-10.396 0.26791-11.339 0.0448-0.29826-0.0705-1.2966-0.48468-2.2185-0.92066-2.2964-1.0859-4.2941-2.6193-6.1012-4.6832-2.1602-2.4672-2.1989-2.9047-0.24212-2.734 0.92134 0.0804 1.3083 0.0416 2.1355-0.21372 0.55556-0.17161 1.1735-0.31197 1.3733-0.31197 0.96098 0 5.4503-2.6816 7.4671-4.4602 0.21604-0.19053 1.0058-0.8123 1.7551-1.3817 0.74931-0.56943 1.7634-1.368 2.2534-1.7748 0.48994-0.40673 1.1505-0.93916 1.4678-1.1832 0.31739-0.24403 1.0898-0.84444 1.7168-1.3341 3.3625-2.626 4.2865-3.2297 5.5468-3.6248 0.58867-0.18457 1.0644-0.27591 1.5194-0.27365z"/>
  <path d="m176.18 87.6c-6.8296 0.005-13.683 0.0516-13.921 0.14209l-0.37947 0.1442v4.0221c0 3.5352 0.0295 4.055 0.24475 4.2927 0.20487 0.22643 0.4771 0.27059 1.6712 0.27059 0.91228 0 1.773-0.0443 1.773-0.0443s0.008 0.898 0.008 1.7565c0 1.0833 0.0511 1.6448 0.0511 1.6448l-3.7485 0.11858c-2.4999 0.0791-3.2615 0.0448-3.4524 0.20292-0.20266 0.16797-0.24477 0.50465-0.24477 1.9522 0 1.51 0.0353 1.7699 0.25884 1.9 0.40172 0.23396 69.58 0.21656 69.814-0.0174 0.20966-0.20966 0.24681-3.4774 0.0432-3.7989-0.10836-0.17114-1.8321-0.20766-10.461-0.22184-5.3716 0.0216-10.752 0.0284-16.165 0.0284l-0.009 0.007c-2.7166 0-4.742-0.0169-7.4741-0.0263-6.4633-0.0227-7.4931-0.0562-7.6144-0.24797-0.0771-0.12201-0.14115-0.83522-0.14236-1.5848-0.006-1.6623-0.006-1.7884-0.006-1.7884 1.0496 0 3.4136 0.0653 3.5494-0.0984 0.27533-0.33178 0.25772-8.3496-0.0185-8.5248-0.14241-0.0902-6.9483-0.13224-13.778-0.12897zm-9.396 2.0079c0.24276 0 0.49232 0.019 0.74894 0.0564 0.25663 0.0353 0.5222 0.0897 0.79653 0.1627v0.93568c-0.24276-0.10857-0.47961-0.19043-0.71057-0.24566-0.23095-0.0553-0.44915-0.083-0.65444-0.083-0.27238 0-0.47377 0.0374-0.60406 0.11252-0.13028 0.075-0.19527 0.19148-0.19527 0.34939 0 0.11843 0.0432 0.21114 0.13034 0.27823 0.0888 0.0651 0.24856 0.12133 0.47951 0.16871l0.48552 0.0978c0.49149 0.0987 0.84097 0.24882 1.0482 0.45016 0.20724 0.20133 0.3108 0.48736 0.3108 0.85847 0 0.48758-0.14499 0.85077-0.43513 1.0896-0.28819 0.23686-0.72928 0.35545-1.3234 0.35545-0.28028 0-0.56167-0.0269-0.84391-0.08-0.28229-0.0533-0.56448-0.13229-0.84671-0.23691v-0.96224c0.28223 0.15005 0.55457 0.26342 0.81709 0.34042 0.26453 0.075 0.51925 0.11253 0.76401 0.11253 0.24867 0 0.43899-0.0416 0.57122-0.12433 0.13225-0.0829 0.19849-0.20144 0.19849-0.35539 0-0.13819-0.0453-0.24461-0.13629-0.31961-0.0889-0.075-0.26748-0.14231-0.53591-0.20149l-0.44115-0.0976c-0.44214-0.0947-0.76575-0.24587-0.97104-0.45316-0.20328-0.20724-0.305-0.48657-0.305-0.83791 0-0.44019 0.14209-0.77851 0.42633-1.0154 0.28424-0.23685 0.69297-0.35539 1.2259-0.35539zm8.9919 0c0.71057 0 1.2671 0.20345 1.6698 0.61007 0.40267 0.40662 0.60406 0.96815 0.60406 1.6846 0 0.71458-0.20139 1.275-0.60406 1.6817-0.40267 0.40656-0.95924 0.61006-1.6698 0.61006-0.70863 0-1.2652-0.2035-1.6699-0.61006-0.40267-0.40663-0.60406-0.9671-0.60406-1.6817 0-0.71647 0.20139-1.278 0.60406-1.6846 0.40467-0.40662 0.96124-0.61007 1.6699-0.61007zm-6.6796 0.08h4.0741v0.86173h-1.4655v3.5588h-1.14v-3.5588h-1.4686zm9.8123 0h1.7408c0.58229 0 1.0089 0.0978 1.2793 0.29325 0.27238 0.19543 0.40858 0.50423 0.40858 0.92666 0 0.29216-0.0712 0.53186-0.2133 0.71938-0.1402 0.18753-0.35245 0.32578-0.63669 0.41458 0.15596 0.0353 0.29521 0.11654 0.41758 0.24287 0.12439 0.12433 0.24967 0.31386 0.37601 0.56848l0.61886 1.2553h-1.2139l-0.53892-1.0984c-0.10857-0.22109-0.2191-0.37225-0.33162-0.45316-0.11052-0.0809-0.25857-0.12132-0.44415-0.12132h-0.32261v1.6729h-1.1399zm4.6661 0h3.0762v0.86173h-1.9363v0.82289h1.821v0.86174h-1.821v1.0126h2.0015v0.86151h-3.1414zm-7.7988 0.7462c-0.34744 0-0.61687 0.12812-0.80834 0.38475-0.19148 0.25662-0.28725 0.61797-0.28725 1.0838 0 0.46386 0.0958 0.824 0.28725 1.0806 0.19147 0.25662 0.4609 0.38501 0.80834 0.38501 0.34938 0 0.61987-0.12839 0.81134-0.38501 0.19148-0.25657 0.28725-0.61671 0.28725-1.0806 0-0.46581-0.0958-0.82716-0.28725-1.0838-0.19147-0.25663-0.46196-0.38475-0.81134-0.38475zm4.2726 0.08v1.134h0.47952c0.23886 0 0.40967-0.0443 0.51234-0.13334 0.10457-0.0889 0.1569-0.23486 0.1569-0.43814 0-0.20134-0.0522-0.34528-0.1569-0.43214-0.10267-0.0869-0.27348-0.13033-0.51234-0.13033zm-13.273 5.8696h18.646v3.4118h-18.646z"/>
  <path d="m444.43 95.71c-0.36172 0-0.79981 0.0121-1.2269 0.0416-0.85409 0.0595-2.9172 0.15485-4.5848 0.21166-1.6675 0.0569-3.115 0.16909-3.2167 0.24962-0.13819 0.10936-0.18489 0.9947-0.18489 3.5051 0 1.8474 0.0443 3.4033 0.0987 3.4575 0.0542 0.0542 21.083 0.0987 46.73 0.0987 44.264 0 46.638-0.0132 46.757-0.25879 0.0693-0.14236 0.11315-1.6847 0.0975-3.4273-0.0243-2.7074-0.0628-3.1935-0.26437-3.3408-0.4257-0.31128-7.4683-0.36788-45.637-0.36788-20.547 0-37.557-0.0532-37.8-0.11811-0.12174-0.0327-0.40714-0.0496-0.7688-0.0517zm25.081 2.5649h25.099v2.3904h-25.099v-2.3904z"/>
  <path d="m193.07 106.22c-16.022 0.009-32.05 0.0699-32.177 0.17514-0.1684 0.13977-0.20197 2.6408-0.20197 15.003 0 16.846 0.13251 15.3-1.3121 15.3-0.46603 0-0.92703 0.0799-1.0247 0.17751-0.11268 0.11263-0.17746 0.68122-0.17746 1.5575 0 1.2309 0.0311 1.3917 0.28682 1.4864 0.43514 0.16101 69.535 0.0564 69.73-0.10557 0.22142-0.18379 0.17751-2.6396-0.0511-2.8692-0.0947-0.0949-0.68333-0.20586-1.308-0.24655-1.0262-0.0669-1.154-0.10958-1.3255-0.44367-0.15105-0.29421-0.18678-3.3728-0.17493-15.065 0.009-8.6452-0.0406-14.75-0.11975-14.829-0.10509-0.10514-16.122-0.14878-32.144-0.14003zm-26.262 3.5872h10.159v5.4978h-10.159v-5.4978zm13.964 0h10.159v5.4978h-10.159v-5.4978zm13.964 0h10.159v5.4978h-10.159v-5.4978zm13.964 0h10.159v5.4978h-10.159v-5.4978zm-29.461 12.968h5.8565v11.713h-5.8565v-11.713zm6.9521 0h5.8565v11.713h-5.8565v-11.713zm6.952 0h5.8563v11.713h-5.8563v-11.713zm6.9518 0h5.8565v11.713h-5.8565v-11.713z"/>
  <path d="m156.1 192.69v5.768l0.55415 0.0456c0.34217 0.0283 0.59878 0.14147 0.67088 0.29582 0.0643 0.13746 0.13883 7.9866 0.16566 17.442 0.0542 19.078 0.11975 17.782-0.91069 18.049l-0.48 0.12434v5.4535l34.904 0.0738c19.197 0.0408 35.021 0.0487 35.166 0.0188 0.24081-0.0503 0.2589-0.2673 0.22184-2.6612l-0.0401-2.606-0.53866-0.25347c-0.29619-0.13943-0.67889-0.48025-0.85039-0.75776-0.31181-0.50349-0.31176-0.53083-0.31176-14.063v-19.008c0-1.5948 0.005-1.6138 0.42496-1.9565 0.23381-0.19016 0.63469-0.4599 0.89089-0.59963l0.46586-0.25395-0.0406-2.556-0.0406-2.5561h-70.25zm20.55 5.5464c0.29604 0 0.60052 0.0228 0.91349 0.0683 0.31291 0.0432 0.63689 0.10957 0.97147 0.19865v1.1409c-0.29605-0.13235-0.58493-0.23227-0.86659-0.29966-0.28161-0.0675-0.54782-0.10101-0.79817-0.10101-0.33215 0-0.5776 0.0455-0.73645 0.13698-0.15885 0.0915-0.23828 0.23361-0.23828 0.42613 0 0.14445 0.0529 0.25764 0.15875 0.33948 0.10836 0.0795 0.30326 0.14815 0.58492 0.20596l0.59225 0.11892c0.59942 0.12041 1.0254 0.30335 1.2782 0.54889 0.25277 0.24555 0.37921 0.59454 0.37921 1.047 0 0.59461-0.17693 1.0376-0.53079 1.3287-0.35144 0.2889-0.88935 0.43335-1.6139 0.43335-0.3418 0-0.68502-0.0322-1.0292-0.0973-0.34422-0.0652-0.68828-0.16126-1.0325-0.2889v-1.1737c0.34422 0.18294 0.67626 0.32142 0.99645 0.41529 0.32256 0.0915 0.633 0.1373 0.93152 0.1373 0.30327 0 0.53564-0.0503 0.69692-0.1516 0.16128-0.10117 0.24197-0.24554 0.24197-0.43335 0-0.1684-0.0554-0.29856-0.16613-0.38999-0.10836-0.0915-0.32614-0.17328-0.65354-0.24546l-0.53797-0.11924c-0.53923-0.11554-0.93399-0.29958-1.1843-0.55227-0.24792-0.25277-0.37179-0.59343-0.37179-1.0219 0-0.5368 0.1733-0.94981 0.51995-1.2386 0.34659-0.28882 0.8447-0.43327 1.4947-0.43327zm-12.612 0.0976h2.1232c0.71016 0 1.2301 0.11916 1.5599 0.35747 0.3322 0.23824 0.49822 0.61503 0.49822 1.1302 0 0.3563-0.0867 0.64873-0.25999 0.87739-0.17087 0.22873-0.42955 0.39714-0.77619 0.50545 0.19016 0.0432 0.35982 0.14194 0.50908 0.29605 0.15164 0.1516 0.30443 0.38269 0.45848 0.69319l0.75474 1.531h-1.4806l-0.65698-1.3396c-0.13239-0.26957-0.26721-0.45361-0.40441-0.55227-0.13482-0.0987-0.31538-0.14814-0.54165-0.14814h-0.39355v2.04h-1.3903v-5.3908zm5.6906 0h3.7517v1.0507h-2.3615v1.0038h2.2205v1.0508h-2.2205v1.2347h2.4407v1.0507h-3.831v-5.3908zm9.7418 0h4.9684v1.0507h-1.7872v4.3401h-1.3902v-4.3401h-1.7909v-1.0507zm6.4598 0h1.6571l1.9968 5.3908h-1.3974l-0.33948-0.98216h-2.1736l-0.3429 0.98216h-1.3974l1.9969-5.3908zm4.1342 0h1.3902v3.2317c0 0.44537 0.0721 0.76412 0.21656 0.95672 0.14684 0.19016 0.38517 0.28536 0.71495 0.28536 0.3322 0 0.57059-0.0952 0.71501-0.28536 0.14683-0.1926 0.22025-0.51135 0.22025-0.95672v-3.2317h1.3902v3.2317c0 0.76309-0.19153 1.3312-0.57428 1.7043s-0.96646 0.5595-1.7512 0.5595c-0.7823 0-1.3648-0.1864-1.7475-0.5595-0.38269-0.3731-0.57422-0.94117-0.57422-1.7043v-3.2317zm6.0083 0h2.1232c0.7101 0 1.23 0.11916 1.5598 0.35747 0.3322 0.23824 0.49823 0.61503 0.49823 1.1302 0 0.3563-0.0866 0.64873-0.25995 0.87739-0.17092 0.22873-0.4296 0.39714-0.77624 0.50545 0.19016 0.0432 0.35982 0.14194 0.50907 0.29605 0.15164 0.1516 0.30443 0.38269 0.45849 0.69319l0.75475 1.531h-1.4806l-0.65697-1.3396c-0.1324-0.26957-0.26722-0.45361-0.40441-0.55227-0.13482-0.0987-0.31539-0.14814-0.54165-0.14814h-0.39355v2.04h-1.3902v-5.3908zm7.0447 0h1.6571l1.9968 5.3908h-1.3974l-0.33948-0.98216h-2.1736l-0.34296 0.98216h-1.3974l1.9969-5.3908zm4.3652 0h1.5527l1.9605 3.6973v-3.6973h1.3179v5.3908h-1.5524l-1.9608-3.6974v3.6974h-1.3179v-5.3908zm5.5533 0h4.9684v1.0507h-1.7872v4.3401h-1.3902v-4.3401h-1.7909v-1.0507zm-47.608 1.0075v1.3828h0.58487c0.29125 0 0.49943-0.0542 0.62461-0.16244 0.1276-0.10832 0.19137-0.28654 0.19137-0.53452 0-0.24554-0.0638-0.42117-0.19137-0.52714-0.12518-0.10588-0.33336-0.15874-0.62461-0.15874h-0.58487zm32.035 0v1.3828h0.58487c0.29125 0 0.49944-0.0542 0.62461-0.16244 0.1276-0.10832 0.19137-0.28654 0.19137-0.53452 0-0.24554-0.0638-0.42117-0.19137-0.52714-0.12517-0.10588-0.33336-0.15874-0.62461-0.15874h-0.58487zm-10.702 0.2563-0.74019 2.1447h1.4769l-0.73672-2.1447zm17.187 0-0.74014 2.1447h1.4768l-0.73671-2.1447zm-39.274 8.0712h13.745v25.816h-13.745v-25.816zm18.286 0.72374h9.0834v16.015h-9.0834v-16.015zm12.669 0h9.0834v16.015h-9.0834v-16.015zm12.669 0h9.0834v16.015h-9.0834v-16.015zm-22.35 19.415a2.6294 2.6294 0 0 1 2.6293 2.6296 2.6294 2.6294 0 0 1 -2.6293 2.6293 2.6294 2.6294 0 0 1 -2.6295 -2.6293 2.6294 2.6294 0 0 1 2.6295 -2.6296zm7.1411 0a2.6294 2.6294 0 0 1 2.6296 2.6296 2.6294 2.6294 0 0 1 -2.6296 2.6293 2.6294 2.6294 0 0 1 -2.6293 -2.6293 2.6294 2.6294 0 0 1 2.6293 -2.6296zm7.1413 0a2.6294 2.6294 0 0 1 2.6293 2.6296 2.6294 2.6294 0 0 1 -2.6293 2.6293 2.6294 2.6294 0 0 1 -2.6293 -2.6293 2.6294 2.6294 0 0 1 2.6293 -2.6296zm7.1413 0a2.6294 2.6294 0 0 1 2.6293 2.6296 2.6294 2.6294 0 0 1 -2.6293 2.6293 2.6294 2.6294 0 0 1 -2.6295 -2.6293 2.6294 2.6294 0 0 1 2.6295 -2.6296zm7.1411 0a2.6294 2.6294 0 0 1 2.6296 2.6296 2.6294 2.6294 0 0 1 -2.6296 2.6293 2.6294 2.6294 0 0 1 -2.6293 -2.6293 2.6294 2.6294 0 0 1 2.6293 -2.6296z"/>
 </g>
 <g font-family="sans-serif" fill="#222">
  <text style="word-spacing:0px;letter-spacing:0px" xml:space="preserve" line-height="125%" y="252.31761" x="147.02815"><tspan font-size="8.1343px" font-weight="bold" y="252.31761" x="147.02815" font-family="sans-serif" fill="#222222">Tienda De Servicios</tspan></text>
  <text style="word-spacing:0px;letter-spacing:0px" xml:space="preserve" line-height="125%" y="152.70326" x="151.98962"><tspan font-size="8.1343px" font-weight="bold" y="152.70326" x="151.98962" font-family="sans-serif" fill="#222222">Tienda De Ventas</tspan></text>
  <text style="word-spacing:0px;letter-spacing:0px" xml:space="preserve" line-height="125%" y="118.94744" x="444.53122"><tspan font-size="9.4654px" font-weight="bold" y="118.94744" x="444.53122" font-family="sans-serif" fill="#222222">Tienda Oficial</tspan></text>
 </g>
 <g stroke="#000" stroke-width="2.3663" stroke-dasharray="10" fill="none">
  <path d="m340.47 78.5c30.794 21.748 58.502-21.956 97.498 21.87" class="path"/>
  <path d="m224.63 195.97c50.2-34.58 9-66.72 69.42-99.42" class="path"/>
  <path d="m291.2 83.5c-34.68 31.61-56.65-10.581-118.58 18.6" class="path"/>
 </g>
 <circle opacity=".88" cy="242.77" cx="526.55" r="100.01" fill="#f2d7c6"/>
</svg>
