<svg xmlns:rdf="http://www.w3.org/1999/02/22-rdf-syntax-ns#" xmlns="http://www.w3.org/2000/svg" height="82mm" width="182mm" version="1.1" xmlns:cc="http://creativecommons.org/ns#" xmlns:dc="http://purl.org/dc/elements/1.1/" viewBox="0 0 644.88181 290.55128">
 <path d="m104.23 31.17-105.32-17.14-1.7652 282.53h648.12v-265.39l-88.13-27.304z" fill-rule="evenodd" stroke="#fff" stroke-width="1px" fill="#eee"/>
 <g fill="#686868">
  <path d="m517.98 28.804c-35.751 0-36.318 0.005-36.47 0.28813-0.10172 0.19007-0.15415 3.559-0.15415 9.8998l-0.006 25.83c-0.007 11.209 0.009 12.026 0.24947 12.201 0.37611 0.27507 72.56 0.27687 72.935 0 0.23839-0.17424 0.25436-1.7017 0.25065-23.933-0.006-21.834-0.0239-23.768-0.24927-24.018-0.23572-0.26056-1.6393-0.27092-36.561-0.27092zm0.0962 5.639c15.427 0.0054 30.858 0.07183 31.003 0.19081 0.16322 0.13547 0.19853 3.4182 0.19853 18.536 0 18.011-0.006 18.375-0.28815 18.526-0.1959 0.10477-10.105 0.15429-30.971 0.15429-27.542 0-30.706-0.02394-30.914-0.23133-0.20706-0.20706-0.22755-2.155-0.19666-18.536 0.0248-13.35 0.08-18.351 0.20251-18.474 0.11876-0.1189 15.54-0.17221 30.966-0.16594zm-21.649 1.3862v7.6601h20.769v-7.6601zm3.293 1.884c0.19082 0 0.38712 0.01501 0.58882 0.04411 0.2017 0.02823 0.41037 0.07061 0.62604 0.12791v0.73544c-0.19085-0.08528-0.37704-0.14973-0.55859-0.19316-0.18156-0.04345-0.35297-0.06523-0.51434-0.06523-0.21408 0-0.37235 0.02972-0.47475 0.08837-0.10227 0.05904-0.15359 0.15055-0.15359 0.27462 0 0.09308 0.0339 0.16606 0.10227 0.2188 0.07 0.05097 0.19555 0.09536 0.37704 0.13262l0.38169 0.07679c0.38632 0.07761 0.66097 0.19551 0.82387 0.35373 0.16285 0.15829 0.24437 0.38325 0.24437 0.67493 0 0.38325-0.11412 0.66869-0.34213 0.85644-0.22651 0.18621-0.57328 0.27931-1.0403 0.27931-0.22034 0-0.44142-0.02125-0.6633-0.06281-0.22186-0.04183-0.44375-0.10397-0.66563-0.1862v-0.75634c0.22188 0.11781 0.43601 0.20713 0.64238 0.26764 0.20787 0.05891 0.40804 0.08837 0.6004 0.08837 0.1955 0 0.34523-0.03227 0.44922-0.09778 0.10394-0.06523 0.156-0.15824 0.156-0.27926 0-0.10855-0.0356-0.19242-0.10709-0.25134-0.0698-0.05891-0.2102-0.11177-0.42124-0.15829l-0.34679-0.07679c-0.34751-0.07439-0.60197-0.19316-0.76334-0.35605-0.15989-0.16292-0.2397-0.38245-0.2397-0.65863 0-0.34604 0.11171-0.61207 0.33513-0.79828 0.22343-0.1862 0.54462-0.27931 0.96353-0.27931zm7.0682 0c0.55859 0 0.99612 0.15983 1.3126 0.47948 0.31651 0.31961 0.47479 0.76103 0.47479 1.3242 0 0.5617-0.15822 1.0023-0.47479 1.3219-0.31647 0.31961-0.754 0.47942-1.3126 0.47942-0.55701 0-0.99456-0.15981-1.3127-0.47942-0.31651-0.31964-0.47473-0.76027-0.47473-1.3219 0-0.56318 0.15822-1.0046 0.47473-1.3242 0.31807-0.31964 0.7556-0.47948 1.3127-0.47948zm-5.2505 0.06281h3.2024v0.67727h-1.152v2.7974h-0.89604v-2.7974h-1.1544zm7.7127 0h1.3685c0.45772 0 0.79282 0.07679 1.0054 0.23044 0.21412 0.15361 0.32119 0.3964 0.32119 0.72842 0 0.22968-0.056 0.41817-0.16767 0.56559-0.11024 0.1474-0.27698 0.256-0.50039 0.3258 0.12246 0.02824 0.23197 0.0916 0.32814 0.19088 0.0978 0.09766 0.1963 0.24667 0.2956 0.44683l0.48639 0.98678h-0.95417l-0.42358-0.86341c-0.0854-0.17378-0.1723-0.29246-0.2607-0.35612-0.0869-0.06362-0.20324-0.09536-0.3491-0.09536h-0.25367v1.3149h-0.89599zm3.6678 0h2.4181v0.67727h-1.5221v0.647h1.4313v0.67727h-1.4313v0.79593h1.5733v0.67725h-2.4693zm-6.1302 0.58649c-0.27311 0-0.48491 0.10088-0.63537 0.30254-0.15043 0.2017-0.22575 0.48563-0.22575 0.85179 0 0.36465 0.0752 0.64779 0.22575 0.84949 0.15044 0.20172 0.36226 0.30256 0.63537 0.30256 0.27464 0 0.48716-0.10088 0.63765-0.30256 0.15044-0.2017 0.22575-0.48485 0.22575-0.84949 0-0.36616-0.0752-0.65009-0.22575-0.85179-0.15044-0.2017-0.36301-0.30254-0.63765-0.30254zm3.3584 0.06294v0.89136h0.37702c0.18775 0 0.32194-0.03511 0.40263-0.10477 0.0823-0.06994 0.12339-0.18468 0.12339-0.34443 0-0.15829-0.041-0.27157-0.12339-0.33982-0.0808-0.06833-0.21488-0.10236-0.40263-0.10236zm8.5776 0.91137v0.23738 2.1949h23.455v-2.4322zm0.4748 0.47475h22.506v1.483h-22.506zm-25.089 5.0406v10.382h0.23743 48.02v-10.382zm0.47481 0.47479h47.308v9.4324h-47.308zm-0.55973 11.25v8.084h0.23736 12.868v-8.084zm17.618 0v8.084h0.2374 12.868v-8.084zm17.618 0v8.084h0.23744 12.868v-8.084zm-34.762 0.47481h12.156v7.1343h-12.156zm17.618 0h12.156v7.1343h-12.156zm17.618 0h12.156v7.1343h-12.156zm-0.51833 8.3764v0.7659h13.192v-0.7659zm-17.703 0.17013v0.76616h13.192v-0.76616zm-17.597 0.19151v0.76596h13.192v-0.76596zm35.301 1.1279v0.7659h13.192v-0.7659zm-17.703 0.17011v0.76618h13.192v-0.76618zm-17.597 0.19153v0.76594h13.192v-0.76594zm35.301 1.1705v0.76596h13.192v-0.76596zm-17.703 0.17013v0.76596h13.192v-0.76596zm-17.597 0.19157v0.7659h13.192v-0.7659z"/>
  <path d="m357.31 37.787c-1.1218 0-2.2373 0.06259-3.3254 0.18253-1.7794 0.19628-4.8241 0.8476-5.9606 1.2751-2.1875 0.82282-2.7986 1.0797-4.1247 1.7325-0.81676 0.40213-1.6981 0.87615-1.9584 1.0537-0.26041 0.17757-0.81828 0.54573-1.2398 0.81796-2.3066 1.4898-4.7301 3.7141-6.6625 6.1148-1.8231 2.265-2.977 4.2194-4.2886 7.2646-0.76742 1.7816-1.8214 6.695-1.8214 6.695l-0.22664 1.596s-0.1506 1.4267-0.1595 2.3273c0.0218 0.37383 0.12349 1.7528 0.22619 3.0641 0.53054 6.7786 3.5544 13.189 8.5306 18.085 1.6554 1.6288 4.8031 4.1389 5.1904 4.1389 0.0667 0 0.24222 0.10761 0.39012 0.23949 0.4159 0.37074 3.0208 1.6654 4.4411 2.207 0.70246 0.26787 1.5455 0.58953 1.8733 0.71497 0.32782 0.1254 1.0558 0.31717 1.6178 0.42575 0.56197 0.10846 1.1563 0.26842 1.3209 0.35525 0.16459 0.08685 1.2375 0.26031 2.3841 0.38556 4.9133 0.53668 9.5574 0.08452 13.836-1.3474 1.2774-0.42757 4.8322-2.0781 5.7049-2.6491 0.23413-0.15315 0.77058-0.50074 1.1921-0.77244 2.926-1.8866 6.18-5.0999 8.0797-7.9786 1.067-1.617 2.2284-3.657 2.3994-4.2141 0.0665-0.21704 0.18894-0.47932 0.27147-0.58303 0.27175-0.34134 1.1968-3.1253 1.6067-4.8351 0.63973-2.6688 0.82872-4.2463 0.82675-6.897 0-1.6803-0.0883-3.0727-0.22695-3.6326l-0.89007-4.7121-0.64823-1.64c-2.1274-5.3818-4.9925-9.347-9.2047-12.738-3.0537-2.4582-5.8114-3.9738-9.4516-5.1935-2.9143-0.97654-6.337-1.4896-9.7027-1.4824zm-6.3056 8.7927h6.7267c5.6634 0 6.7988 0.04014 7.1824 0.25544 0.25057 0.14055 1.2473 0.64723 2.2148 1.1261 2.8014 1.3864 5.1798 3.3773 7.771 6.5052 0.58881 0.71072 0.72392 0.99592 0.68117 1.4384l-0.0536 0.55214-2.2138 0.09473c-2.4044 0.10288-3.6051 0.37845-5.2793 1.212-2.5317 1.2604-3.708 2.0616-7.7143 5.2545-1.0024 0.79884-2.2822 1.7931-2.8442 2.2093-0.56198 0.41628-1.9798 1.53-3.1505 2.4748-4.5197 3.6468-6.4136 4.8788-8.1019 5.2702-0.61358 0.14224-1.245 0.25372-1.4031 0.2475-0.48025-0.01885-1.6698-0.43441-2.0932-0.73092-0.21943-0.15379-0.56501-0.27942-0.76796-0.27942-0.5084 0-0.98431-0.47506-1.2378-1.2354-0.27692-0.83046-0.11502-1.296 0.54947-1.579 0.2954-0.12578 1.1353-0.72881 1.8663-1.3401 0.73098-0.61124 2.0339-1.6473 2.895-2.3021 0.86124-0.65496 2.0331-1.5584 2.604-2.0077 0.57102-0.44928 1.6438-1.2939 2.3841-1.877 0.74033-0.58311 1.9091-1.5022 2.597-2.0425 0.68803-0.54024 1.3188-1.1096 1.402-1.2652 0.20865-0.38967-1.2618-2.1918-1.78-2.1814-0.19912 0.0061-0.9752 0.50167-1.7246 1.1061-0.74933 0.60446-1.8222 1.4457-2.3841 1.8693-1.3155 0.9916-7.4366 5.8341-8.9844 7.1076-1.3118 1.0794-1.7429 1.184-2.4332 0.59019l-0.45236-0.38902 0.0106-2.7059 0.0106-2.7056 0.73046-0.77034c1.3795-1.455 2.9452-2.9365 3.6781-3.4803 0.7509-0.55708 1.6132-1.2282 3.5928-2.7959 0.61752-0.48908 1.7165-1.332 2.4421-1.8733 1.6693-1.2452 1.7676-1.5403 0.83124-2.4942-0.47368-0.48273-0.70302-0.86662-0.70302-1.1766 0-0.40844 0.17708-0.55136 1.5753-1.2709zm19.427 14.411c0.52384 0 1.0239 0.11303 1.6058 0.33185 1.0987 0.41316 2.7249 1.8921 2.7249 2.4781 0 0.2708-0.408 0.67638-1.4901 1.4814-0.81962 0.60961-1.6818 1.2671-1.9158 1.4609-1.3471 1.1144-4.2583 3.4159-4.7684 3.7694-0.32778 0.22727-1.7072 1.3043-3.0653 2.3932-1.3582 1.089-2.6419 2.0704-2.8527 2.181-0.57307 0.30048-0.48234 0.92697 0.25544 1.7636 0.78253 0.88744 0.89687 0.9738 1.2937 0.97709 0.17306 0 1.0941-0.63876 2.0471-1.4225 0.953-0.78373 2.0487-1.6459 2.4351-1.9158 0.38629-0.26995 1.611-1.2244 2.7213-2.121 1.1104-0.8967 2.5813-2.0566 3.2689-2.5775 0.68748-0.52077 1.3957-1.1866 1.574-1.4797 0.17815-0.29308 0.61216-0.66293 0.96404-0.82167 0.35186-0.15883 0.80545-0.43318 1.0082-0.60993 0.4691-0.40874 0.83266-0.2941 1.7499 0.55272l0.71923 0.66418-0.0564 2.2517c-0.0498 1.9915-0.0938 2.2733-0.37792 2.44-0.17666 0.10365-0.55985 0.44812-0.85147 0.76528-1.5383 1.673-3.3066 3.3117-4.7057 4.3611-3.1939 2.3951-6.5136 5.0679-6.592 5.3069-0.0352 0.10841 0.28889 0.59506 0.72063 1.0812 1.0631 1.1971 1.0014 1.4614-0.51175 2.1939-0.6556 0.31736-1.5752 0.68062-2.0436 0.80703-0.98098 0.26484-11.971 0.3085-13.056 0.05152-0.34346-0.08119-1.493-0.5581-2.5546-1.0601-2.6442-1.2504-4.9446-3.016-7.0254-5.3927-2.4875-2.841-2.532-3.3447-0.27876-3.1481 1.0609 0.09257 1.5065 0.04783 2.4589-0.2461 0.63971-0.19761 1.3512-0.35924 1.5813-0.35924 1.1066 0 6.276-3.0878 8.5982-5.1357 0.24877-0.21939 1.1581-0.93536 2.021-1.591 0.86282-0.65568 2.0305-1.5752 2.5946-2.0436 0.56418-0.46835 1.3248-1.0814 1.6902-1.3624 0.36546-0.28101 1.2549-0.97234 1.9768-1.5362 3.8717-3.0238 4.9357-3.719 6.387-4.1738 0.67786-0.21252 1.2256-0.3177 1.7496-0.31511z"/>
  <path d="m115.81 35.674c-7.077 0.0055-14.178 0.05341-14.425 0.14724l-0.39321 0.14943v4.1677c0 3.6631 0.0305 4.2018 0.25362 4.4481 0.21229 0.23463 0.49437 0.28038 1.7317 0.28038 0.9453 0 1.8372-0.04594 1.8372-0.04594s0.008 0.93049 0.008 1.8201c0 1.1225 0.053 1.7044 0.053 1.7044l-3.8843 0.12287c-2.5905 0.08193-3.3797 0.04636-3.5774 0.21027-0.20999 0.17406-0.25364 0.52293-0.25364 2.0229 0 1.5647 0.0366 1.834 0.26822 1.9687 0.41626 0.24243 72.1 0.2244 72.342-0.01792 0.21725-0.21725 0.25576-3.6033 0.0446-3.9365-0.11228-0.17733-1.8984-0.21517-10.84-0.22987-5.5661 0.02242-11.141 0.02947-16.75 0.02947l-0.01 0.0069c-2.8149 0-4.9136-0.01754-7.7447-0.02726-6.6972-0.02352-7.7643-0.05825-7.8902-0.25696-0.0799-0.12648-0.1462-0.86545-0.14754-1.6422-0.006-1.7225-0.006-1.8532-0.006-1.8532 1.0876 0 3.5371 0.06767 3.6778-0.10198 0.2853-0.3438 0.26704-8.6519-0.0191-8.8335-0.14754-0.0934-7.1999-0.137-14.277-0.13368zm-9.7361 2.0806c0.25154 0 0.51014 0.01965 0.77605 0.05841 0.26592 0.03654 0.54112 0.09299 0.82539 0.16858v0.96957c-0.25156-0.1125-0.49699-0.19733-0.73631-0.25455-0.23932-0.05728-0.46542-0.08606-0.67815-0.08606-0.28223 0-0.4909 0.03875-0.62592 0.11666-0.13515 0.07777-0.20234 0.19842-0.20234 0.36204 0 0.12274 0.0446 0.21877 0.13515 0.28831 0.0921 0.06754 0.25754 0.12566 0.49685 0.17482l0.50312 0.1013c0.50926 0.10227 0.8714 0.25783 1.0861 0.46647 0.21475 0.20861 0.32205 0.50499 0.32205 0.88955 0 0.50522-0.15021 0.88158-0.45088 1.129-0.29862 0.24544-0.75567 0.36832-1.3713 0.36832-0.29042 0-0.582-0.02781-0.87445-0.08288-0.29252-0.05522-0.58491-0.13713-0.87738-0.2455v-0.99708c0.29247 0.15549 0.57464 0.27297 0.84667 0.35276 0.27412 0.07777 0.53807 0.11666 0.79167 0.11666 0.25768 0 0.45489-0.04304 0.59191-0.12884 0.13706-0.08593 0.20568-0.20873 0.20568-0.36826 0-0.14319-0.0469-0.25349-0.14125-0.33118-0.0921-0.07777-0.27716-0.14746-0.55531-0.20879l-0.45711-0.10116c-0.45815-0.09811-0.79347-0.25478-1.0062-0.46957-0.21065-0.21473-0.31603-0.50419-0.31603-0.86824 0-0.45612 0.14716-0.80668 0.44175-1.0522 0.29454-0.24542 0.71806-0.36826 1.2703-0.36826zm9.3175 0c0.73629 0 1.313 0.21081 1.7303 0.63215 0.41723 0.42133 0.62592 1.0032 0.62592 1.7456 0 0.74044-0.20869 1.3212-0.62592 1.7426-0.41727 0.42127-0.99399 0.63215-1.7303 0.63215-0.73429 0-1.311-0.21086-1.7304-0.63215-0.41725-0.42135-0.62592-1.0021-0.62592-1.7426 0-0.74241 0.20867-1.3243 0.62592-1.7456 0.41932-0.42135 0.99604-0.63215 1.7304-0.63215zm-6.9214 0.08288h4.2217v0.89292h-1.5186v3.6877h-1.1813v-3.6877h-1.5218zm10.167 0h1.8038c0.60337 0 1.0454 0.1013 1.3256 0.30387 0.28225 0.20252 0.42339 0.52249 0.42339 0.96021 0 0.30274-0.0738 0.55112-0.22102 0.74544-0.14526 0.19432-0.36521 0.33757-0.65976 0.42958 0.16165 0.03654 0.30591 0.12082 0.43271 0.25166 0.12886 0.12884 0.25871 0.32524 0.38963 0.58907l0.64126 1.3008h-1.2579l-0.55842-1.1382c-0.11247-0.22909-0.22703-0.38574-0.34363-0.46955-0.11457-0.08385-0.26794-0.12566-0.46024-0.12566h-0.33429v1.7335h-1.1812zm4.8351 0h3.1876v0.89292h-2.0065v0.85268h1.8869v0.89294h-1.8869v1.0493h2.0739v0.89269h-3.2552zm-8.0811 0.77321c-0.36003 0-0.63921 0.13271-0.8376 0.39868-0.19842 0.2659-0.29766 0.64033-0.29766 1.123 0 0.48067 0.0993 0.85384 0.29766 1.1197 0.19839 0.2659 0.47757 0.39895 0.8376 0.39895 0.36202 0 0.64229-0.13298 0.84071-0.39895 0.1984-0.26586 0.29765-0.63904 0.29765-1.1197 0-0.48269-0.0993-0.8571-0.29765-1.123-0.19842-0.26593-0.47869-0.39868-0.84071-0.39868zm4.4273 0.0829v1.1751h0.49687c0.24752 0 0.42451-0.04594 0.5309-0.1381 0.10827-0.09217 0.16259-0.24336 0.16259-0.454 0-0.20863-0.0541-0.35778-0.16259-0.44779-0.10637-0.09009-0.28338-0.13505-0.5309-0.13505zm-13.754 6.0821h19.321v3.5352h-19.321z"/>
  <path d="m480.21 79.572c-0.36431 0-0.80551 0.01204-1.2356 0.04183-0.86018 0.05999-2.938 0.15596-4.6174 0.21317-1.6794 0.0573-3.1372 0.1703-3.2396 0.25141-0.13913 0.11016-0.18621 1.0018-0.18621 3.5301 0 1.8605 0.0446 3.4275 0.0995 3.4821 0.0546 0.0546 21.234 0.0994 47.062 0.0994 44.579 0 46.969-0.01352 47.09-0.26064 0.0698-0.14338 0.11394-1.6967 0.0982-3.4517-0.0245-2.7266-0.0632-3.2163-0.26625-3.3645-0.42875-0.31351-7.5215-0.3705-45.961-0.3705-20.693 0-37.824-0.05352-38.069-0.11891-0.12265-0.03296-0.41004-0.04989-0.77428-0.05204zm25.26 2.5832h25.278v2.4074h-25.278v-2.4074z"/>
  <path d="m133.31 54.969c-16.602 0.0095-33.21 0.07244-33.341 0.18147-0.17442 0.14487-0.20926 2.7364-0.20926 15.546 0 17.456 0.13724 15.854-1.3596 15.854-0.4829 0-0.96059 0.08273-1.0618 0.18395-0.11685 0.11666-0.18395 0.70589-0.18395 1.6139 0 1.2755 0.0322 1.4421 0.2972 1.5402 0.45089 0.16679 72.052 0.0583 72.255-0.10942 0.22944-0.19043 0.18394-2.7352-0.053-2.9731-0.0982-0.09836-0.70807-0.21332-1.3554-0.25549-1.0634-0.06939-1.1958-0.11361-1.3735-0.45972-0.1565-0.30488-0.19353-3.4948-0.18128-15.61 0.01-8.9582-0.0421-15.284-0.12409-15.366-0.10884-0.10884-16.706-0.15421-33.307-0.14506zm-27.213 3.7171h10.527v5.6969h-10.527v-5.6969zm14.47 0h10.527v5.6969h-10.527v-5.6969zm14.47 0h10.527v5.6969h-10.527v-5.6969zm14.47 0h10.527v5.6969h-10.527v-5.6969zm-30.528 13.438h6.0686v12.137h-6.0686v-12.137zm7.2037 0h6.0686v12.137h-6.0686v-12.137zm7.2037 0h6.0684v12.137h-6.0684v-12.137zm7.2035 0h6.0686v12.137h-6.0686v-12.137z"/>
  <path d="m204.29 46.283v2.6644 2.6644l0.51198 0.04198c0.31613 0.02617 0.5532 0.1307 0.61983 0.27331 0.0595 0.12696 0.12832 7.3788 0.15296 16.115 0.0501 17.626 0.11064 16.429-0.84138 16.675l-0.44348 0.11489v2.5191 2.5193l32.248 0.0682c17.735 0.0377 32.355 0.045 32.489 0.0173 0.22249-0.0466 0.2392-0.24695 0.20495-2.4586l-0.037-2.4076-0.49766-0.23417c-0.27365-0.12883-0.62723-0.44371-0.78567-0.7001-0.28808-0.46518-0.28803-0.49043-0.28803-12.993v-17.562c0-1.4734 0.005-1.491 0.39263-1.8077 0.216-0.17569 0.58637-0.4249 0.82308-0.554l0.4304-0.23463-0.0376-2.3614-0.0376-2.3616h-32.452-32.452zm18.986 5.1243c0.27351 0 0.55481 0.02108 0.84396 0.06306 0.28911 0.03994 0.58842 0.1013 0.89754 0.18352v1.0541c-0.27351-0.1222-0.5404-0.21459-0.80064-0.27685-0.26016-0.06238-0.50612-0.09331-0.73742-0.09331-0.30686 0-0.53364 0.04215-0.6804 0.12662-0.14684 0.08447-0.22013 0.21583-0.22013 0.39369 0 0.13342 0.0488 0.23804 0.14668 0.31364 0.1001 0.07342 0.28017 0.13682 0.5404 0.1903l0.54718 0.10979c0.5538 0.11132 0.94735 0.28026 1.1809 0.50712 0.23354 0.22684 0.35036 0.54929 0.35036 0.96732 0 0.54934-0.1635 0.95862-0.4904 1.2276-0.32469 0.26692-0.82167 0.40037-1.4911 0.40037-0.31579 0-0.6329-0.02974-0.95087-0.08991-0.31803-0.06017-0.63591-0.14906-0.95393-0.2669v-1.0844c0.31802 0.16894 0.6248 0.29694 0.92061 0.38367 0.29803 0.08447 0.58483 0.12679 0.86064 0.12679 0.28018 0 0.49487-0.04657 0.64388-0.14005 0.14905-0.09348 0.22354-0.22684 0.22354-0.40037 0-0.15551-0.0511-0.27584-0.15347-0.36031-0.10011-0.08447-0.30134-0.1601-0.60381-0.22678l-0.49701-0.11013c-0.49821-0.10674-0.86292-0.27678-1.0942-0.51024-0.22905-0.23354-0.34348-0.54827-0.34348-0.94412 0-0.49596 0.1601-0.87753 0.48037-1.1443 0.32022-0.26685 0.78042-0.4003 1.381-0.4003zm-11.652 0.09025h1.9617c0.65611 0 1.1365 0.11013 1.4412 0.33026 0.30691 0.2201 0.46028 0.56821 0.46028 1.0442 0 0.32919-0.08 0.59936-0.2402 0.8106-0.15789 0.21134-0.39684 0.36692-0.71711 0.467 0.17569 0.03994 0.33244 0.13121 0.47033 0.27352 0.14005 0.14005 0.28128 0.35357 0.42359 0.64044l0.69731 1.4145h-1.3679l-0.60697-1.2377c-0.1222-0.24904-0.24689-0.41908-0.37364-0.51023-0.12458-0.09127-0.29138-0.13682-0.50043-0.13682h-0.36359v1.8847h-1.2845v-4.9805zm5.2575 0h3.4662v0.97074h-2.1818v0.9274h2.0516v0.97082h-2.0516v1.1407h2.255v0.97074h-3.5394v-4.9805zm9.0004 0h4.5903v0.97074h-1.6512v4.0098h-1.2844v-4.0098h-1.6546v-0.97074zm5.9681 0h1.531l1.8449 4.9805h-1.291l-0.31365-0.9074h-2.0082l-0.31681 0.9074h-1.291l1.8449-4.9805zm3.8197 0h1.2844v2.9857c0 0.41147 0.0666 0.70598 0.20008 0.88391 0.13563 0.17569 0.35586 0.26364 0.66054 0.26364 0.30692 0 0.52715-0.08804 0.66058-0.26364 0.13563-0.17793 0.20348-0.47244 0.20348-0.88391v-2.9857h1.2844v2.9857c0 0.70502-0.17697 1.2299-0.53058 1.5746-0.35362 0.34471-0.89292 0.51693-1.6179 0.51693-0.72275 0-1.2609-0.17222-1.6145-0.51693-0.35355-0.34469-0.53051-0.86953-0.53051-1.5746v-2.9857zm5.551 0h1.9617c0.65606 0 1.1364 0.11013 1.4411 0.33026 0.30693 0.2201 0.46032 0.56821 0.46032 1.0442 0 0.32919-0.0799 0.59936-0.24017 0.8106-0.15789 0.21134-0.3969 0.36692-0.71716 0.467 0.17569 0.03994 0.33244 0.13121 0.47033 0.27352 0.14005 0.14005 0.28127 0.35357 0.42359 0.64044l0.69732 1.4145h-1.3679l-0.60697-1.2377c-0.1222-0.24904-0.24687-0.41908-0.37363-0.51023-0.12458-0.09127-0.29139-0.13682-0.50042-0.13682h-0.3636v1.8847h-1.2844v-4.9805zm6.5086 0h1.531l1.8449 4.9805h-1.2911l-0.31365-0.9074h-2.0082l-0.31686 0.9074h-1.291l1.8449-4.9805zm4.033 0h1.4345l1.8113 3.4158v-3.4158h1.2176v4.9805h-1.4342l-1.8116-3.416v3.416h-1.2176v-4.9805zm5.1307 0h4.5903v0.97074h-1.6512v4.0098h-1.2844v-4.0098h-1.6546v-0.97074zm-43.985 0.93082v1.2776h0.54035c0.26908 0 0.46142-0.05014 0.57708-0.15007 0.11795-0.10011 0.17681-0.26475 0.17681-0.49385 0-0.22686-0.059-0.38912-0.17681-0.48702-0.11557-0.0979-0.308-0.14668-0.57708-0.14668h-0.54035zm29.597 0v1.2776h0.54037c0.26908 0 0.46142-0.05014 0.57708-0.15007 0.11778-0.10011 0.17679-0.26475 0.17679-0.49385 0-0.22686-0.059-0.38912-0.17679-0.48702-0.11557-0.0979-0.308-0.14668-0.57708-0.14668h-0.54037zm-9.8875 0.2368-0.68387 1.9814h1.3645l-0.68065-1.9814zm15.879 0-0.68379 1.9814h1.3644l-0.68064-1.9814zm-36.285 7.457h12.699v23.852h-12.699v-23.852zm16.894 0.66867h8.3921v14.796h-8.3921v-14.796zm11.705 0h8.3921v14.796h-8.3921v-14.796zm11.705 0h8.3921v14.796h-8.3921v-14.796zm-20.648 17.937a2.4292 2.4292 0 0 1 2.4292 2.4294 2.4292 2.4292 0 0 1 -2.4292 2.4292 2.4292 2.4292 0 0 1 -2.4294 -2.4292 2.4292 2.4292 0 0 1 2.4294 -2.4294zm6.5976 0a2.4292 2.4292 0 0 1 2.4294 2.4294 2.4292 2.4292 0 0 1 -2.4294 2.4292 2.4292 2.4292 0 0 1 -2.4292 -2.4292 2.4292 2.4292 0 0 1 2.4292 -2.4294zm6.5978 0a2.4292 2.4292 0 0 1 2.4292 2.4294 2.4292 2.4292 0 0 1 -2.4292 2.4292 2.4292 2.4292 0 0 1 -2.4292 -2.4292 2.4292 2.4292 0 0 1 2.4292 -2.4294zm6.5978 0a2.4292 2.4292 0 0 1 2.4292 2.4294 2.4292 2.4292 0 0 1 -2.4292 2.4292 2.4292 2.4292 0 0 1 -2.4294 -2.4292 2.4292 2.4292 0 0 1 2.4294 -2.4294zm6.5976 0a2.4292 2.4292 0 0 1 2.4294 2.4294 2.4292 2.4292 0 0 1 -2.4294 2.4292 2.4292 2.4292 0 0 1 -2.4292 -2.4292 2.4292 2.4292 0 0 1 2.4292 -2.4294z"/>
 </g>
 <g font-family="sans-serif" fill="#646464">
  <text style="word-spacing:0px;letter-spacing:0px" xml:space="preserve" font-size="20.395px" y="101.36535" x="195.92151" line-height="125%"><tspan font-size="7.5153px" font-weight="bold" y="101.36535" x="195.92151" font-family="sans-serif" fill="#646464">Tienda De Servicios</tspan></text>
  <text style="word-spacing:0px;letter-spacing:0px" xml:space="preserve" font-size="22.874px" y="103.13416" x="90.75219" line-height="125%"><tspan font-size="8.4288px" font-weight="bold" y="103.13416" x="90.75219" font-family="sans-serif" fill="#646464">Tienda De Ventas</tspan></text>
  <text style="word-spacing:0px;letter-spacing:0px" xml:space="preserve" font-size="22.232px" y="102.9753" x="480.31229" line-height="125%"><tspan font-size="9.5328px" font-weight="bold" y="102.9753" x="480.31229" font-family="sans-serif" fill="#646464">Tienda Oficial</tspan></text>
 </g>
 <g stroke="#8c8c8c" stroke-dasharray="10" stroke-width="1.2863" fill="none">
  <path d="m381.7 56.021c39.559 1.519 49.123 13.315 101.6 2.4422" class="path"/>
  <path d="m165.03 58.149c111.24-28.569 125.48 9.996 164.48 14.727" class="path"/>
  <path d="m166.45 65.572c-25.836 16.645-38.557-7.8623-55.338 9.2549" class="path"/>
 </g>
 <circle opacity=".88" cy="244.24" cx="456.2" r="100.01" fill="#f2d7c6"/>
 <path d="m268.21 87.615c18.118 3.1227 38.702-16.928 60.745-13.325" stroke="#8c8c8c" stroke-dasharray="10" stroke-width="1.2863" class="path" fill="none"/>
</svg>
