<svg xmlns:rdf="http://www.w3.org/1999/02/22-rdf-syntax-ns#" xmlns="http://www.w3.org/2000/svg" height="82mm" width="182mm" version="1.1" xmlns:cc="http://creativecommons.org/ns#" xmlns:dc="http://purl.org/dc/elements/1.1/" viewBox="0 0 644.88181 290.55128">
 <style>.path {
			stroke-dasharray: 10000;
			animation: dash 16s linear infinite;
		}
		.path:hover {
			animation: dash 5s linear infinite;
		}
		@keyframes dash {
		  to {
			stroke-dashoffset: 500;
		  }
		}</style>
 <path d="m104.23 31.17-105.32-17.14-1.7652 282.53h648.12v-265.39l-88.13-27.304z" fill-rule="evenodd" stroke="#fff" stroke-width="1px" fill="#eee"/>
 <circle opacity=".88" cy="244.97" cx="396.11" r="100.01" fill="#f2d7c6"/>
 <g fill-opacity=".18135" fill="#5c5c5c">
  <path d="m369.59 22.585c-19.297 0-19.603 0.0027-19.685 0.15552-0.0549 0.10259-0.0832 1.921-0.0832 5.3435l-0.003 13.942c-0.004 6.0502 0.005 6.4911 0.13465 6.5857 0.20301 0.14847 39.165 0.14944 39.367 0 0.12867-0.09405 0.13729-0.91852 0.13529-12.918-0.003-11.785-0.0129-12.829-0.13455-12.964-0.12723-0.14064-0.88481-0.14623-19.734-0.14623zm0.0519 3.0437c8.3268 0.0029 16.656 0.03877 16.734 0.10299 0.0881 0.07312 0.10716 1.845 0.10716 10.005 0 9.7217-0.003 9.9179-0.15553 9.9995-0.10574 0.05655-5.4544 0.08328-16.717 0.08328-14.866 0-16.574-0.01292-16.686-0.12486-0.11176-0.11176-0.12282-1.1632-0.10615-10.005 0.0134-7.2059 0.0432-9.9049 0.10931-9.9712 0.0641-0.06418 8.3877-0.09295 16.714-0.08957zm-11.685 0.74821v4.1346h11.21v-4.1346zm1.7774 1.0169c0.103 0 0.20895 0.0081 0.31782 0.02381 0.10887 0.01524 0.2215 0.03811 0.33791 0.06904v0.39696c-0.10301-0.04603-0.20351-0.08082-0.3015-0.10426-0.098-0.02345-0.19052-0.03521-0.27762-0.03521-0.11555 0-0.20098 0.01604-0.25625 0.0477-0.0552 0.03187-0.0829 0.08126-0.0829 0.14823 0 0.05024 0.0183 0.08963 0.0552 0.1181 0.0378 0.02751 0.10555 0.05147 0.20351 0.07158l0.20602 0.04145c0.20852 0.04189 0.35676 0.10553 0.44469 0.19093 0.0879 0.08544 0.1319 0.20686 0.1319 0.3643 0 0.20686-0.0616 0.36093-0.18467 0.46227-0.12226 0.10051-0.30943 0.15076-0.56149 0.15076-0.11893 0-0.23826-0.01147-0.35802-0.0339-0.11975-0.02258-0.23952-0.05612-0.35928-0.1005v-0.40824c0.11976 0.06359 0.23534 0.1118 0.34673 0.14446 0.1122 0.0318 0.22024 0.0477 0.32407 0.0477 0.10552 0 0.18634-0.01742 0.24247-0.05278 0.0561-0.03521 0.0842-0.08541 0.0842-0.15073 0-0.05859-0.0192-0.10386-0.0578-0.13566-0.0377-0.0318-0.11346-0.06033-0.22737-0.08544l-0.18718-0.04145c-0.18757-0.04015-0.32492-0.10426-0.41202-0.19218-0.0863-0.08794-0.12938-0.20643-0.12938-0.3555 0-0.18678 0.0603-0.33037 0.18089-0.43088 0.1206-0.1005 0.29396-0.15076 0.52007-0.15076zm3.8151 0c0.3015 0 0.53766 0.08627 0.70848 0.2588 0.17084 0.17251 0.25627 0.41077 0.25627 0.71472 0 0.30318-0.0854 0.541-0.25627 0.71353-0.17082 0.17251-0.40698 0.25877-0.70848 0.25877-0.30065 0-0.53682-0.08626-0.70852-0.25877-0.17084-0.17253-0.25624-0.41036-0.25624-0.71353 0-0.30398 0.0854-0.54224 0.25624-0.71472 0.17168-0.17253 0.40784-0.2588 0.70852-0.2588zm-2.834 0.0339h1.7285v0.36556h-0.62182v1.5099h-0.48364v-1.5099h-0.62308zm4.163 0h0.73864c0.24706 0 0.42793 0.04145 0.54268 0.12438 0.11557 0.08291 0.17336 0.21396 0.17336 0.39317 0 0.12397-0.0302 0.22571-0.0905 0.30528-0.0595 0.07956-0.1495 0.13818-0.27009 0.17585 0.0661 0.01524 0.12521 0.04944 0.17712 0.10303 0.0528 0.05271 0.10595 0.13314 0.15955 0.24118l0.26253 0.53262h-0.51502l-0.22863-0.46603c-0.0461-0.0938-0.093-0.15786-0.14071-0.19222-0.0469-0.03434-0.1097-0.05147-0.18843-0.05147h-0.13692v0.70972h-0.48362zm1.9797 0h1.3052v0.36556h-0.82155v0.34922h0.77257v0.36556h-0.77257v0.42961h0.84921v0.36555h-1.3328zm-3.3088 0.31656c-0.14741 0-0.26173 0.05445-0.34294 0.1633-0.0812 0.10887-0.12185 0.26212-0.12185 0.45976 0 0.19682 0.0406 0.34965 0.12185 0.45852 0.0812 0.10888 0.19553 0.16331 0.34294 0.16331 0.14824 0 0.26295-0.05445 0.34418-0.16331 0.0812-0.10887 0.12185-0.2617 0.12185-0.45852 0-0.19764-0.0406-0.35089-0.12185-0.45976-0.0812-0.10887-0.19594-0.1633-0.34418-0.1633zm1.8127 0.03397v0.48112h0.2035c0.10134 0 0.17377-0.01895 0.21732-0.05655 0.0444-0.03775 0.0666-0.09968 0.0666-0.18591 0-0.08544-0.0221-0.14658-0.0666-0.18342-0.0436-0.03688-0.11598-0.05525-0.21732-0.05525zm4.6298 0.49192v0.12813 1.1847h12.66v-1.3128zm0.25628 0.25625h12.148v0.80045h-12.148zm-13.542 2.7207v5.6039h0.12815 25.919v-5.6039zm0.25628 0.25627h25.535v5.0912h-25.535zm-0.30212 6.072v4.3634h0.12812 6.9456v-4.3634zm9.5097 0v4.3634h0.12814 6.9455v-4.3634zm9.5097 0v4.3634h0.12816 6.9455v-4.3634zm-18.763 0.25628h6.5612v3.8508h-6.5612zm9.5097 0h6.5612v3.8508h-6.5612zm9.5097 0h6.5612v3.8508h-6.5612zm-0.27977 4.5212v0.4134h7.1206v-0.4134zm-9.5554 0.09183v0.41354h7.1206v-0.41354zm-9.4983 0.10337v0.41343h7.1206v-0.41343zm19.054 0.60878v0.4134h7.1206v-0.4134zm-9.5554 0.09182v0.41355h7.1206v-0.41355zm-9.4983 0.10338v0.41342h7.1206v-0.41342zm19.054 0.63177v0.41343h7.1206v-0.41343zm-9.5554 0.09183v0.41343h7.1206v-0.41343zm-9.4983 0.1034v0.4134h7.1206v-0.4134z"/>
  <path d="m391.67 94.741c-1.4509 0-2.8936 0.08096-4.3009 0.23607-2.3013 0.25385-6.2392 1.0962-7.709 1.6492-2.8292 1.0642-3.6196 1.3963-5.3346 2.2407-1.0563 0.52008-2.1962 1.1332-2.5329 1.3628-0.3368 0.22966-1.0583 0.7058-1.6034 1.0579-2.9832 1.9268-6.1175 4.8036-8.6168 7.9084-2.3579 2.9294-3.8502 5.457-5.5466 9.3954-0.99253 2.3042-2.3557 8.6588-2.3557 8.6588l-0.29309 2.0641s-0.1948 1.8451-0.2063 3.01c0.0282 0.48348 0.15971 2.2669 0.29254 3.9628 0.68616 8.767 4.597 17.058 11.033 23.39 2.1409 2.1065 6.212 5.3529 6.7128 5.3529 0.0864 0 0.31327 0.13922 0.50455 0.30974 0.5379 0.47949 3.907 2.1539 5.7438 2.8544 0.90851 0.34645 1.9988 0.76245 2.4228 0.92469 0.42398 0.16218 1.3656 0.4102 2.0924 0.55064 0.72681 0.14022 1.4955 0.34716 1.7083 0.45945 0.21286 0.11229 1.6005 0.33667 3.0834 0.49866 6.3545 0.69411 12.361 0.1093 17.895-1.7427 1.6521-0.55299 6.2496-2.6876 7.3783-3.4262 0.30282-0.19806 0.99662-0.64761 1.5418-0.99901 3.7842-2.44 7.9928-6.5958 10.45-10.319 1.38-2.0913 2.882-4.7296 3.1031-5.4501 0.0861-0.2807 0.24436-0.61992 0.35111-0.75406 0.35145-0.44145 1.5479-4.042 2.0779-6.2534 0.82739-3.4516 1.0718-5.4918 1.0693-8.9201 0-2.1732-0.11428-3.9741-0.29352-4.6981l-1.1512-6.0942-0.83837-2.121c-2.7514-6.9605-6.457-12.089-11.905-16.474-3.9494-3.1793-7.5161-5.1395-12.224-6.7169-3.7691-1.263-8.1958-1.9265-12.549-1.9172zm-8.1552 11.372h8.6999c7.3246 0 8.793 0.0519 9.2891 0.33037 0.32406 0.18177 1.6132 0.83708 2.8645 1.4564 3.6231 1.793 6.6991 4.368 10.05 8.4133 0.76153 0.91919 0.93626 1.288 0.88097 1.8604l-0.0693 0.7141-2.8632 0.12251c-3.1097 0.13307-4.6625 0.48945-6.8279 1.5676-3.2744 1.6301-4.7957 2.6663-9.9771 6.7958-1.2964 1.0332-2.9516 2.319-3.6785 2.8574-0.72681 0.53838-2.5604 1.9788-4.0746 3.2007-5.8455 4.7165-8.295 6.3098-10.478 6.8161-0.79354 0.18396-1.6102 0.32815-1.8146 0.3201-0.62114-0.0244-2.1596-0.56184-2.7072-0.94534-0.28381-0.19889-0.73075-0.36138-0.99322-0.36138-0.65753 0-1.273-0.6144-1.6009-1.5978-0.35815-1.074-0.14875-1.6761 0.71065-2.0422 0.38203-0.16268 1.4684-0.94259 2.4138-1.7332 0.94541-0.79054 2.6304-2.1305 3.7442-2.9774 1.1139-0.84709 2.6294-2.0156 3.3678-2.5966 0.73851-0.58106 2.126-1.6734 3.0834-2.4276 0.95749-0.75415 2.4691-1.9429 3.3588-2.6416 0.88984-0.69871 1.7056-1.4351 1.8133-1.6364 0.26986-0.50398-1.6319-2.8347-2.3021-2.8212-0.25751 0.008-1.2612 0.64882-2.2304 1.4306-0.96913 0.78177-2.3567 1.8697-3.0834 2.4176-1.7013 1.2825-9.6179 7.5454-11.62 9.1924-1.6965 1.396-2.2541 1.5312-3.147 0.76331l-0.58503-0.50313 0.0143-3.4996 0.0143-3.4993 0.94472-0.99631c1.7841-1.8818 3.8091-3.7979 4.757-4.5012 0.97116-0.72048 2.0864-1.5884 4.6466-3.616 0.79864-0.63255 2.22-1.7228 3.1585-2.4228 2.1589-1.6104 2.2861-1.9922 1.0751-3.2259-0.61262-0.62432-0.90924-1.1208-0.90924-1.5217 0-0.52825 0.22903-0.71309 2.0374-1.6437zm25.125 18.638c0.6775 0 1.3242 0.14618 2.0769 0.42919 1.4209 0.53435 3.5242 2.4471 3.5242 3.205 0 0.35023-0.52768 0.87478-1.9272 1.9159-1.06 0.78843-2.175 1.6388-2.4778 1.8894-1.7422 1.4413-5.5074 4.4179-6.1671 4.8751-0.42392 0.29393-2.208 1.6868-3.9645 3.0952-1.7566 1.4084-3.4168 2.6776-3.6894 2.8207-0.74116 0.38861-0.62382 1.1989 0.33038 2.2809 1.012 1.1478 1.1599 1.2594 1.6731 1.2637 0.22383 0 1.4151-0.82613 2.6476-1.8398 1.2326-1.0136 2.6497-2.1287 3.1494-2.4778 0.49959-0.34914 2.0836-1.5835 3.5196-2.7432s3.3385-2.6598 4.2277-3.3335c0.88915-0.67353 1.8051-1.5346 2.0356-1.9138 0.2304-0.37905 0.79172-0.85738 1.2468-1.0627 0.45508-0.20541 1.0417-0.56024 1.304-0.78884 0.60671-0.52863 1.0769-0.38036 2.2632 0.71485l0.93021 0.859-0.0728 2.9122c-0.0644 2.5756-0.12141 2.9401-0.48878 3.1557-0.22847 0.1341-0.72407 0.57957-1.1012 0.98977-1.9895 2.1637-4.2765 4.2831-6.086 5.6403-4.1308 3.0977-8.4243 6.5545-8.5256 6.8635-0.0455 0.14022 0.37362 0.7696 0.93201 1.3983 1.375 1.5482 1.2951 1.8901-0.66186 2.8374-0.84791 0.41044-2.0373 0.88025-2.6431 1.0438-1.2688 0.34253-15.482 0.39898-16.886 0.0667-0.44419-0.10503-1.9309-0.72181-3.304-1.3711-3.4198-1.6172-6.395-3.9006-9.0861-6.9745-3.2171-3.6744-3.2746-4.3258-0.36054-4.0716 1.3721 0.1197 1.9484 0.0619 3.1801-0.31829 0.82736-0.25557 1.7476-0.46461 2.0452-0.46461 1.4311 0 8.1169-3.9935 11.12-6.6421 0.32174-0.28374 1.4979-1.2097 2.6138-2.0577 1.1159-0.84802 2.6261-2.0373 3.3557-2.6431 0.72966-0.60572 1.7134-1.3986 2.1859-1.7621 0.47268-0.36343 1.623-1.2576 2.5567-1.9868 5.0074-3.9108 6.3835-4.8099 8.2604-5.3981 0.87669-0.27486 1.5852-0.41088 2.2627-0.40754z"/>
  <path d="m259.06 56.571c-5.4776 0.0043-10.974 0.04134-11.165 0.11396l-0.30434 0.11566v3.2258c0 2.8353 0.0236 3.2523 0.1963 3.4429 0.16432 0.18161 0.38265 0.21702 1.3404 0.21702 0.73167 0 1.422-0.03556 1.422-0.03556s0.006 0.72021 0.006 1.4088c0 0.86884 0.041 1.3192 0.041 1.3192l-3.0064 0.09511c-2.0051 0.06341-2.6159 0.03588-2.7689 0.16275-0.16253 0.13472-0.19632 0.40475-0.19632 1.5657 0 1.2111 0.0283 1.4195 0.20761 1.5238 0.32218 0.18764 55.806 0.17369 55.993-0.01387 0.16816-0.16815 0.19796-2.789 0.0345-3.0469-0.0869-0.13726-1.4694-0.16654-8.3901-0.17792-4.3082 0.01735-8.6235 0.02281-12.965 0.02281l-0.007 0.0053c-2.1787 0-3.8032-0.01357-5.9944-0.0211-5.1837-0.01821-6.0096-0.04509-6.107-0.19889-0.0618-0.09789-0.11316-0.66987-0.11419-1.2711-0.004-1.3332-0.004-1.4344-0.004-1.4344 0.84181 0 2.7378 0.05238 2.8467-0.07893 0.22083-0.2661 0.20669-6.6966-0.0147-6.8372-0.1142-0.0723-5.5728-0.10604-11.05-0.10347zm-7.5358 1.6104c0.1947 0 0.39485 0.01521 0.60067 0.04521 0.20582 0.02828 0.41883 0.07197 0.63886 0.13048v0.75045c-0.19471-0.08708-0.38467-0.15274-0.56991-0.19703-0.18524-0.04434-0.36024-0.06661-0.52489-0.06661-0.21845 0-0.37997 0.02999-0.48447 0.0903-0.10461 0.0602-0.15662 0.15358-0.15662 0.28022 0 0.095 0.0345 0.16933 0.10461 0.22316 0.0713 0.05227 0.19934 0.09726 0.38457 0.13531l0.38942 0.0784c0.39417 0.07916 0.67447 0.19956 0.84067 0.36105 0.16622 0.16147 0.24927 0.39087 0.24927 0.68852 0 0.39104-0.11626 0.68235-0.34898 0.87389-0.23113 0.18997-0.58489 0.28508-1.0614 0.28508-0.22479 0-0.45047-0.02153-0.67683-0.06415-0.22641-0.04274-0.45273-0.10614-0.6791-0.19002v-0.77174c0.22637 0.12035 0.44478 0.21128 0.65533 0.27304 0.21217 0.0602 0.41647 0.0903 0.61276 0.0903 0.19944 0 0.35209-0.03332 0.45814-0.09972 0.10608-0.06651 0.1592-0.16156 0.1592-0.28504 0-0.11083-0.0363-0.1962-0.10933-0.25634-0.0713-0.0602-0.21452-0.11414-0.42982-0.1616l-0.3538-0.0783c-0.35462-0.07594-0.61416-0.1972-0.77881-0.36345-0.16305-0.1662-0.24461-0.39025-0.24461-0.67202 0-0.35304 0.1139-0.62438 0.34191-0.81438 0.22798-0.18996 0.55579-0.28504 0.98322-0.28504zm7.2118 0c0.56989 0 1.0162 0.16317 1.3392 0.48929 0.32294 0.32611 0.48447 0.7765 0.48447 1.3511 0 0.57311-0.16153 1.0226-0.48447 1.3488-0.32297 0.32607-0.76935 0.48929-1.3392 0.48929-0.56835 0-1.0148-0.16321-1.3393-0.48929-0.32296-0.32612-0.48447-0.77564-0.48447-1.3488 0-0.57463 0.16151-1.025 0.48447-1.3511 0.32456-0.32612 0.77094-0.48929 1.3393-0.48929zm-5.3572 0.06415h3.2676v0.69113h-1.1754v2.8543h-0.91431v-2.8543h-1.1779zm7.8697 0h1.3962c0.46701 0 0.80916 0.0784 1.026 0.2352 0.21846 0.15675 0.3277 0.40441 0.3277 0.74321 0 0.23432-0.0571 0.42657-0.17107 0.57698-0.11243 0.1504-0.28267 0.26128-0.51066 0.3325 0.12512 0.02828 0.23678 0.09351 0.33492 0.19478 0.0997 0.09972 0.20025 0.25174 0.30158 0.45595l0.49634 1.0068h-0.97359l-0.43223-0.88095c-0.087-0.17732-0.17572-0.29856-0.26597-0.36344-0.0887-0.0649-0.20738-0.09726-0.35622-0.09726h-0.25874v1.3417h-0.91423zm3.7424 0h2.4672v0.69113h-1.553v0.65998h1.4605v0.69114h-1.4605v0.81214h1.6052v0.69095h-2.5196zm-6.2549 0.59847c-0.27866 0-0.49475 0.10272-0.64831 0.30858-0.15358 0.2058-0.23039 0.49562-0.23039 0.86924 0 0.37204 0.0769 0.66088 0.23039 0.86667 0.15356 0.2058 0.36965 0.30879 0.64831 0.30879 0.28021 0 0.49714-0.10292 0.65071-0.30879 0.15356-0.20578 0.23039-0.49462 0.23039-0.86667 0-0.3736-0.0769-0.6634-0.23039-0.86924-0.15357-0.20584-0.3705-0.30858-0.65071-0.30858zm3.4268 0.06416v0.9095h0.38458c0.19158 0 0.32857-0.03556 0.41092-0.10689 0.0838-0.07134 0.12585-0.18837 0.12585-0.3514 0-0.16148-0.0419-0.27692-0.12585-0.34659-0.0823-0.06973-0.21934-0.10453-0.41092-0.10453zm-10.645 4.7076h14.955v2.7363h-14.955z"/>
  <path d="m349.2 49.987c-0.19664 0-0.43478 0.0065-0.66694 0.02258-0.46429 0.03238-1.5858 0.08418-2.4923 0.11506-0.90645 0.03093-1.6933 0.09192-1.7486 0.1357-0.0751 0.05946-0.10051 0.54072-0.10051 1.9054 0 1.0042 0.0241 1.85 0.0537 1.8795 0.0295 0.02947 11.461 0.05365 25.402 0.05365 24.062 0 25.352-0.0073 25.417-0.14068 0.0377-0.07739 0.0615-0.9158 0.053-1.8631-0.0132-1.4717-0.0341-1.736-0.14371-1.816-0.23142-0.16922-4.0598-0.19998-24.808-0.19998-11.169 0-20.416-0.02889-20.548-0.06418-0.0662-0.01779-0.22132-0.02693-0.41792-0.02809zm13.634 1.3943h13.644v1.2994h-13.644v-1.2994z"/>
  <path d="m272.6 71.505c-12.85 0.0074-25.705 0.05607-25.806 0.14046-0.135 0.11213-0.16197 2.118-0.16197 12.033 0 13.511 0.10623 12.271-1.0524 12.271-0.37376 0-0.7435 0.06403-0.82183 0.14238-0.0904 0.09029-0.14238 0.54636-0.14238 1.2492 0 0.98723 0.0249 1.1162 0.23003 1.1921 0.349 0.1291 55.769 0.04515 55.926-0.08469 0.1776-0.14739 0.14238-2.1171-0.041-2.3012-0.076-0.07613-0.54806-0.16511-1.0491-0.19775-0.82304-0.05371-0.92554-0.08794-1.0631-0.35582-0.12113-0.23598-0.1498-2.705-0.14031-12.083 0.007-6.9337-0.0326-11.83-0.096-11.893-0.0842-0.08425-12.93-0.11936-25.78-0.11228zm-21.063 2.8771h8.1478v4.4094h-8.1478v-4.4094zm11.2 0h8.1478v4.4094h-8.1478v-4.4094zm11.2 0h8.1478v4.4094h-8.1478v-4.4094zm11.2 0h8.1478v4.4094h-8.1478v-4.4094zm-23.629 10.401h4.6971v9.3942h-4.6971v-9.3942zm5.5757 0h4.6971v9.3942h-4.6971v-9.3942zm5.5757 0h4.697v9.3942h-4.697v-9.3942zm5.5756 0h4.6971v9.3942h-4.6971v-9.3942z"/>
  <path d="m261.13 160.6v2.5582 2.5582l0.49156 0.0403c0.30351 0.0251 0.53113 0.12549 0.5951 0.26241 0.0571 0.1219 0.1232 7.0845 0.14686 15.472 0.0481 16.923 0.10623 15.773-0.80782 16.01l-0.42579 0.11031v2.4187 2.4188l30.962 0.0654c17.028 0.0362 31.065 0.0432 31.193 0.0166 0.21361-0.0447 0.22966-0.2371 0.19677-2.3606l-0.0356-2.3116-0.47781-0.22483c-0.26273-0.12369-0.60221-0.42601-0.75433-0.67217-0.27659-0.44662-0.27654-0.47087-0.27654-12.474v-16.861c0-1.4147 0.005-1.4315 0.37696-1.7356 0.20739-0.16868 0.56299-0.40795 0.79025-0.5319l0.41324-0.22527-0.0361-2.2672-0.0361-2.2674h-31.158-31.158zm18.229 4.9199c0.2626 0 0.53268 0.0202 0.8103 0.0605 0.27757 0.0384 0.56495 0.0973 0.86174 0.1762v1.012c-0.26261-0.11733-0.51885-0.20604-0.76871-0.26581-0.24978-0.0599-0.48593-0.0896-0.70801-0.0896-0.29462 0-0.51235 0.0405-0.65325 0.12157-0.14099 0.0811-0.21135 0.20722-0.21135 0.37799 0 0.12809 0.0468 0.22855 0.14082 0.30113 0.0961 0.0705 0.269 0.13136 0.51885 0.18271l0.52535 0.10541c0.53171 0.10689 0.90957 0.26909 1.1338 0.4869 0.22423 0.2178 0.33638 0.52738 0.33638 0.92874 0 0.52743-0.15698 0.92038-0.47084 1.1786-0.31174 0.25627-0.78889 0.3844-1.4316 0.3844-0.30319 0-0.60765-0.0285-0.91295-0.0863-0.30534-0.0578-0.61053-0.14311-0.91588-0.25626v-1.0411c0.30535 0.1622 0.59989 0.28509 0.8839 0.36836 0.28614 0.0811 0.5615 0.12174 0.82631 0.12174 0.269 0 0.47513-0.0447 0.61819-0.13446 0.14311-0.0898 0.21463-0.2178 0.21463-0.38441 0-0.14931-0.0491-0.26484-0.14735-0.34594-0.0961-0.0811-0.28932-0.15371-0.57973-0.21773l-0.47718-0.10574c-0.47833-0.10248-0.8285-0.26574-1.0505-0.48988-0.21992-0.22423-0.32979-0.5264-0.32979-0.90647 0-0.47617 0.15372-0.84253 0.46121-1.0987 0.30745-0.25621 0.74929-0.38434 1.3259-0.38434zm-11.187 0.0866h1.8834c0.62994 0 1.0911 0.10574 1.3837 0.31709 0.29467 0.21132 0.44192 0.54554 0.44192 1.0025 0 0.31606-0.0769 0.57545-0.23062 0.77827-0.15159 0.20291-0.38101 0.35229-0.6885 0.44837 0.16868 0.0383 0.31918 0.12597 0.45157 0.2626 0.13446 0.13446 0.27006 0.33947 0.40669 0.6149l0.66949 1.3581h-1.3134l-0.58277-1.1883c-0.11732-0.23911-0.23703-0.40237-0.35873-0.48988-0.11961-0.0876-0.27976-0.13136-0.48047-0.13136h-0.34909v1.8095h-1.2333v-4.7818zm5.0478 0h3.3279v0.93202h-2.0947v0.8904h1.9697v0.9321h-1.9697v1.0952h2.1651v0.93202h-3.3982v-4.7818zm8.6414 0h4.4072v0.93202h-1.5853v3.8499h-1.2332v-3.8499h-1.5886v-0.93202zm5.7301 0h1.4699l1.7713 4.7818h-1.2396l-0.30113-0.8712h-1.9281l-0.30417 0.8712h-1.2396l1.7713-4.7818zm3.6673 0h1.2332v2.8666c0 0.39506 0.064 0.67782 0.1921 0.84865 0.13021 0.16868 0.34166 0.25312 0.63419 0.25312 0.29467 0 0.50612-0.0845 0.63424-0.25312 0.13021-0.17083 0.19535-0.45359 0.19535-0.84865v-2.8666h1.2332v2.8666c0 0.6769-0.1699 1.1808-0.50942 1.5118-0.33951 0.33096-0.8573 0.49631-1.5534 0.49631-0.69392 0-1.2106-0.16535-1.5501-0.49631-0.33945-0.33095-0.50935-0.83485-0.50935-1.5118v-2.8666zm5.3296 0h1.8834c0.62989 0 1.0911 0.10574 1.3836 0.31709 0.29469 0.21132 0.44196 0.54554 0.44196 1.0025 0 0.31606-0.0767 0.57545-0.23059 0.77827-0.1516 0.20291-0.38108 0.35229-0.68856 0.44837 0.16868 0.0383 0.31918 0.12597 0.45157 0.2626 0.13446 0.13446 0.27005 0.33947 0.40669 0.6149l0.66951 1.3581h-1.3134l-0.58276-1.1883c-0.11733-0.23911-0.23702-0.40237-0.35872-0.48988-0.11961-0.0876-0.27977-0.13136-0.48047-0.13136h-0.34909v1.8095h-1.2332v-4.7818zm6.249 0h1.4699l1.7713 4.7818h-1.2396l-0.30113-0.8712h-1.9281l-0.30421 0.8712h-1.2396l1.7713-4.7818zm3.8721 0h1.3773l1.739 3.2796v-3.2796h1.169v4.7818h-1.377l-1.7393-3.2798v3.2798h-1.169v-4.7818zm4.9261 0h4.4072v0.93202h-1.5853v3.8499h-1.2332v-3.8499h-1.5886v-0.93202zm-42.231 0.89368v1.2266h0.5188c0.25835 0 0.44302-0.0481 0.55406-0.14409 0.11325-0.0961 0.16976-0.25418 0.16976-0.47415 0-0.21781-0.0566-0.3736-0.16976-0.46759-0.11096-0.094-0.29571-0.14082-0.55406-0.14082h-0.5188zm28.416 0v1.2266h0.51881c0.25835 0 0.44302-0.0481 0.55406-0.14409 0.11309-0.0961 0.16974-0.25418 0.16974-0.47415 0-0.21781-0.0566-0.3736-0.16974-0.46759-0.11096-0.094-0.29571-0.14082-0.55406-0.14082h-0.51881zm-9.4932 0.22736-0.65659 1.9024h1.3101l-0.65351-1.9024zm15.246 0-0.65652 1.9024h1.31l-0.65349-1.9024zm-34.837 7.1595h12.192v22.901h-12.192v-22.901zm16.22 0.642h8.0573v14.206h-8.0573v-14.206zm11.238 0h8.0573v14.206h-8.0573v-14.206zm11.238 0h8.0573v14.206h-8.0573v-14.206zm-19.825 17.222a2.3323 2.3323 0 0 1 2.3323 2.3325 2.3323 2.3323 0 0 1 -2.3323 2.3323 2.3323 2.3323 0 0 1 -2.3325 -2.3323 2.3323 2.3323 0 0 1 2.3325 -2.3325zm6.3345 0a2.3323 2.3323 0 0 1 2.3325 2.3325 2.3323 2.3323 0 0 1 -2.3325 2.3323 2.3323 2.3323 0 0 1 -2.3323 -2.3323 2.3323 2.3323 0 0 1 2.3323 -2.3325zm6.3346 0a2.3323 2.3323 0 0 1 2.3323 2.3325 2.3323 2.3323 0 0 1 -2.3323 2.3323 2.3323 2.3323 0 0 1 -2.3323 -2.3323 2.3323 2.3323 0 0 1 2.3323 -2.3325zm6.3346 0a2.3323 2.3323 0 0 1 2.3323 2.3325 2.3323 2.3323 0 0 1 -2.3323 2.3323 2.3323 2.3323 0 0 1 -2.3325 -2.3323 2.3323 2.3323 0 0 1 2.3325 -2.3325zm6.3345 0a2.3323 2.3323 0 0 1 2.3325 2.3325 2.3323 2.3323 0 0 1 -2.3325 2.3323 2.3323 2.3323 0 0 1 -2.3323 -2.3323 2.3323 2.3323 0 0 1 2.3323 -2.3325z"/>
  <g font-family="sans-serif">
   <text style="word-spacing:0px;letter-spacing:0px" line-height="125%" font-size="19.582px" y="213.49112" x="253.08296" xml:space="preserve"><tspan font-family="sans-serif" fill-opacity=".18135" font-size="7.2155px" y="213.49112" x="253.08296" font-weight="bold" fill="#5c5c5c">Tienda De Servicios</tspan></text>
   <text style="word-spacing:0px;letter-spacing:0px" line-height="125%" font-size="17.705px" y="108.78618" x="239.66133" xml:space="preserve"><tspan font-family="sans-serif" fill-opacity=".18135" font-size="6.524px" y="108.78618" x="239.66133" font-weight="bold" fill="#5c5c5c">Tienda De Ventas</tspan></text>
   <text style="word-spacing:0px;letter-spacing:0px" line-height="125%" y="62.619205" x="349.2558" xml:space="preserve"><tspan font-family="sans-serif" fill-opacity=".18135" font-size="5.1454px" y="62.619205" x="349.2558" font-weight="bold" fill="#5c5c5c">Tienda Oficial</tspan></text>
  </g>
 </g>
 <g stroke-opacity=".12953" stroke="#000" stroke-miterlimit="3.9" stroke-dasharray="5.40000177, 1.80000059000000001" stroke-width="1.8" fill="none">
  <path d="m294.59 85.361c18.72-41.86 117.21-56.2 127.51 27.119"/>
  <path d="m387.49 24.697c40.478 1.6669 84.561 59.873 39.938 94.996"/>
  <path d="m319.06 163.43c-3.05-63.11 49.84-89.883 81.91-64.086"/>
 </g>
</svg>
